<?xml version="1.0" standalone="no"?>
<!DOCTYPE svg PUBLIC "-//W3C//DTD SVG 20010904//EN"
 "http://www.w3.org/TR/2001/REC-SVG-20010904/DTD/svg10.dtd">
<svg version="1.0" xmlns="http://www.w3.org/2000/svg"
 width="500.000000pt" height="500.000000pt" viewBox="0 0 500.000000 500.000000"
 preserveAspectRatio="xMidYMid meet">
<metadata>
Created by potrace 1.14, written by Peter Selinger 2001-2017
</metadata>
<g transform="translate(0.000000,500.000000) scale(0.100000,-0.100000)"
fill="#000000" stroke="none">
<path d="M442 4416 c-269 -88 -301 -455 -49 -580 28 -14 61 -26 73 -26 13 0
25 -7 27 -17 3 -10 5 -206 5 -435 l0 -418 -93 0 c-67 0 -96 -4 -104 -14 -7 -9
-11 -45 -10 -93 0 -43 1 -108 0 -144 l-1 -66 -136 0 c-104 0 -138 -4 -145 -14
-14 -23 -11 -1223 3 -1237 9 -9 100 -12 350 -12 l338 0 83 -64 c144 -112 369
-226 547 -277 82 -24 269 -65 335 -74 28 -4 66 -9 85 -12 44 -7 393 -6 440 1
19 2 58 7 85 11 28 3 68 10 90 15 74 17 98 13 136 -26 48 -49 207 -154 315
-207 215 -107 402 -150 649 -151 181 -1 250 6 385 39 375 92 719 341 918 667
76 125 154 299 177 398 59 250 66 517 19 720 -9 36 -17 72 -19 80 -9 40 -51
154 -88 235 -164 365 -513 677 -897 803 -139 45 -239 63 -382 69 -71 3 -128 9
-129 12 -1 3 -2 50 -3 104 l-3 97 41 11 c214 56 307 303 182 484 -30 43 -64
72 -121 103 -43 23 -62 27 -135 27 -78 0 -90 -3 -147 -33 -107 -59 -166 -157
-166 -277 -1 -136 90 -261 213 -296 25 -7 49 -16 54 -20 8 -7 11 -197 4 -205
-2 -2 -24 -6 -48 -9 -291 -34 -556 -144 -778 -323 -56 -45 -66 -49 -93 -42
-16 5 -32 9 -34 9 -5 -1 -70 10 -106 16 -130 24 -501 30 -614 10 -16 -3 -46
-8 -65 -11 -43 -7 -73 -13 -102 -18 -226 -42 -488 -148 -670 -273 -43 -29 -79
-53 -82 -53 -2 0 -6 9 -9 20 -5 18 -14 20 -101 20 l-96 0 2 431 3 432 49 14
c180 53 272 255 196 427 -28 62 -97 132 -158 158 -59 26 -162 33 -220 14z"/>
</g>
</svg>
