<?xml version="1.0" encoding="UTF-8" standalone="no"?><!-- Generator: Gravit.io --><svg xmlns="http://www.w3.org/2000/svg" xmlns:xlink="http://www.w3.org/1999/xlink" style="isolation:isolate" viewBox="370 342 58.117 56" width="58.117pt" height="56pt"><g><path d=" M 371.341 370.145 C 371.511 370.002 371.615 369.796 371.631 369.575 C 371.699 365.393 373.75 361.492 377.157 359.065 C 377.528 358.807 377.62 358.297 377.361 357.925 C 377.103 357.554 376.593 357.462 376.221 357.72 C 372.409 360.431 370.103 364.785 370.002 369.461 C 369.978 369.789 370.153 370.099 370.445 370.248 C 370.738 370.397 371.091 370.356 371.342 370.144 L 371.341 370.145 Z " fill="rgb(255,255,255)"/><path d=" M 379.036 362.479 C 378.703 362.175 378.188 362.198 377.884 362.529 C 374.765 366.015 373.477 370.77 374.411 375.353 C 374.444 375.567 374.561 375.759 374.736 375.887 C 374.91 376.014 375.128 376.067 375.342 376.034 C 375.788 375.965 376.092 375.548 376.023 375.102 C 375.163 371.009 376.3 366.751 379.085 363.631 C 379.232 363.472 379.309 363.261 379.3 363.045 C 379.29 362.829 379.195 362.625 379.036 362.479 L 379.036 362.479 Z " fill="rgb(255,255,255)"/><path d=" M 409.929 348.511 C 409.011 349.219 408.353 350.21 408.057 351.331 C 407.762 352.452 407.845 353.639 408.295 354.707 C 409.335 356.484 409.791 358.543 409.6 360.593 L 409.581 360.609 C 408.584 361.208 406.806 358.526 406.132 357.509 C 405.956 357.243 405.805 357.017 405.689 356.86 C 405.243 356.252 400.639 348.694 397.654 343.761 L 397.654 343.761 C 397.178 342.961 396.409 342.375 395.511 342.127 C 394.633 341.877 393.691 341.999 392.906 342.464 C 392.147 342.879 391.592 343.586 391.367 344.421 C 391.107 345.377 391.242 346.398 391.743 347.254 L 393.142 349.557 L 389.721 345.097 L 389.721 345.097 C 389.16 344.416 388.352 343.984 387.474 343.897 C 386.596 343.81 385.719 344.074 385.035 344.631 C 384.317 345.134 383.829 345.903 383.679 346.767 C 383.53 347.63 383.732 348.518 384.239 349.233 L 385.314 350.639 C 384.815 350.161 384.159 349.881 383.468 349.85 C 382.607 349.808 381.758 350.067 381.067 350.584 C 380.359 351.113 379.879 351.893 379.726 352.764 C 379.574 353.635 379.76 354.531 380.246 355.27 L 391.515 367.921 C 390.142 366.789 388.867 365.544 387.702 364.198 C 386.173 362.224 384.691 361.668 383.311 362.535 C 382.601 362.946 382.083 363.619 381.868 364.41 C 381.652 365.2 381.758 366.044 382.161 366.756 C 384.911 371.339 395.939 382.476 399.713 383.317 C 401.963 383.962 403.899 385.409 405.156 387.385 L 403.875 388.46 C 403.501 388.773 403.452 389.331 403.766 389.705 L 410.461 397.685 C 410.775 398.058 411.332 398.107 411.706 397.793 C 412.08 397.479 412.129 396.922 411.816 396.548 L 405.688 389.246 L 420.429 376.877 L 426.556 384.179 C 426.87 384.553 427.427 384.602 427.801 384.288 C 428.175 383.974 428.224 383.417 427.91 383.043 L 421.216 375.064 C 420.902 374.691 420.344 374.642 419.971 374.955 L 418.374 376.295 L 416.687 374.097 C 416.894 371.711 417.343 369.354 418.03 367.061 C 419.165 363.189 418.966 359.692 414.654 352.294 C 414.415 351.903 414.189 351.467 413.967 351.037 C 413.273 349.697 412.616 348.432 411.505 348.162 L 411.504 348.161 C 410.953 348.037 410.375 348.164 409.928 348.51 L 409.929 348.511 Z  M 412.521 351.786 C 412.763 352.25 413.007 352.721 413.253 353.124 C 417.667 360.696 417.344 363.594 416.465 366.595 C 416.444 366.666 414.437 373.838 415.304 374.969 L 417.124 377.343 L 406.415 386.329 C 404.937 384.067 402.678 382.429 400.069 381.727 C 396.97 381.036 386.308 370.495 383.565 365.921 C 383.2 365.197 383.474 364.313 384.184 363.921 C 384.415 363.774 385.02 363.398 386.451 365.244 C 392.135 371.625 394.445 371.245 395.017 370.976 C 395.25 370.867 395.418 370.653 395.469 370.4 C 395.521 370.148 395.449 369.886 395.277 369.693 L 381.526 354.262 C 381.313 353.874 381.247 353.422 381.34 352.989 C 381.433 352.556 381.679 352.171 382.033 351.905 C 382.416 351.612 382.89 351.463 383.371 351.482 C 383.761 351.497 384.121 351.691 384.346 352.008 L 396.691 365.508 L 396.69 365.509 C 396.985 365.831 397.482 365.863 397.817 365.582 C 398.151 365.302 398.206 364.808 397.942 364.461 L 385.538 348.245 C 385.25 347.729 385.231 347.105 385.487 346.571 C 385.743 346.038 386.243 345.663 386.826 345.565 C 387.41 345.468 388.004 345.661 388.42 346.082 L 401.003 362.483 C 401.265 362.831 401.755 362.911 402.115 362.664 C 402.475 362.418 402.577 361.932 402.348 361.562 L 393.143 346.419 C 392.867 345.948 392.791 345.385 392.934 344.858 C 393.047 344.439 393.327 344.084 393.708 343.877 C 394.119 343.631 394.613 343.567 395.073 343.699 C 395.567 343.837 395.989 344.161 396.25 344.602 C 397.013 345.865 403.733 356.96 404.367 357.821 C 404.472 357.963 404.605 358.166 404.763 358.405 L 404.764 358.406 C 405.532 359.712 406.534 360.866 407.72 361.811 C 406.822 362.464 406.192 363.42 405.945 364.502 C 405.878 364.948 406.185 365.363 406.631 365.431 C 407.077 365.497 407.493 365.19 407.56 364.744 C 407.74 363.528 409.71 362.345 410.382 362.022 L 410.394 362.011 C 410.419 361.99 410.449 361.986 410.477 361.968 L 410.477 361.968 C 410.519 361.937 410.559 361.904 410.597 361.868 L 410.656 361.818 C 411.932 360.559 411.053 356.278 409.714 353.912 L 409.714 353.911 C 409.465 353.199 409.443 352.427 409.649 351.701 C 409.855 350.974 410.28 350.329 410.865 349.853 C 410.914 349.812 411.047 349.734 411.119 349.751 C 411.51 349.839 412.121 351.013 412.521 351.786 L 412.521 351.786 Z " fill="rgb(255,255,255)"/></g></svg>