<?xml version="1.0" encoding="UTF-8" standalone="no"?><!-- Generator: Gravit.io --><svg xmlns="http://www.w3.org/2000/svg" xmlns:xlink="http://www.w3.org/1999/xlink" style="isolation:isolate" viewBox="0 0 300 300" width="300pt" height="300pt"><defs><clipPath id="_clipPath_VukA32Z3fusiuyC5D1NyjdNSbNOb01Jd"><rect width="300" height="300"/></clipPath></defs><g clip-path="url(#_clipPath_VukA32Z3fusiuyC5D1NyjdNSbNOb01Jd)"><g><path d=" M 295.028 99.718 C 295.028 72.514 274.697 50.084 248.816 47.664 C 246.524 21.007 224.677 0 198.149 0 C 177.754 0 160.166 12.457 152.064 30.304 C 143.738 12.426 125.666 0 104.69 0 C 77.421 0 54.959 20.975 52.605 47.633 C 25.947 49.99 4.972 72.448 4.972 99.718 C 4.972 111.852 9.134 123.406 16.751 132.733 C 9.136 142.059 4.972 153.611 4.972 165.747 C 4.972 186.563 17.202 205.087 35.888 213.446 C 33.403 219.643 32.079 226.322 32.079 233.003 C 32.079 254.722 45.795 274.408 66.221 281.992 C 72.837 284.445 79.806 285.573 86.616 285.22 C 96.426 294.771 109.271 300 122.987 300 C 133.474 300 143.447 296.903 152.064 291.092 C 160.454 296.934 170.167 300 180.367 300 C 193.727 300 206.216 294.773 215.736 285.22 C 222.32 285.542 229.096 284.414 235.518 281.96 C 255.366 274.376 268.692 254.691 268.692 233.004 C 268.692 226.291 267.434 219.612 264.98 213.415 C 283.117 205.056 294.992 186.533 294.992 165.75 C 294.992 153.617 290.958 142.062 283.536 132.736 C 290.993 123.405 295.027 111.853 295.027 99.719 L 295.028 99.718 Z  M 92.006 276.889 C 91.069 275.921 89.811 275.372 88.487 275.372 C 88.359 275.372 88.197 275.372 88.069 275.403 C 81.968 275.953 75.58 275.145 69.544 272.918 C 52.893 266.755 41.726 250.716 41.726 233.031 C 41.726 225.997 43.403 219.315 46.696 213.087 C 47.373 211.829 47.439 210.343 46.921 209.021 C 46.406 207.698 45.307 206.665 43.952 206.246 C 26.43 200.501 14.649 184.237 14.649 165.81 C 14.649 163.131 14.908 160.517 15.392 157.935 L 88.516 157.935 C 90.711 167.262 99.101 174.233 109.073 174.233 C 120.722 174.233 130.211 164.745 130.211 153.095 C 130.211 141.446 120.722 131.957 109.073 131.957 C 99.069 131.957 90.711 138.929 88.516 148.255 L 18.487 148.255 C 20.488 143.834 23.23 139.735 26.683 136.153 C 28.491 134.283 28.491 131.28 26.683 129.409 C 18.906 121.406 14.646 110.885 14.646 99.785 C 14.646 76.29 33.751 57.185 57.246 57.185 C 59.925 57.185 62.086 55.022 62.086 52.346 C 62.086 28.851 81.191 9.746 104.685 9.746 C 128.18 9.746 147.285 28.851 147.285 52.346 L 147.285 108.015 L 122.726 108.015 L 122.726 96.978 C 122.726 94.299 120.563 92.138 117.886 92.138 L 73.607 92.136 C 73.479 92.136 73.382 92.168 73.285 92.168 C 70.703 83.391 62.604 76.934 52.987 76.934 C 41.338 76.934 31.849 86.423 31.849 98.072 C 31.849 109.722 41.338 119.21 52.987 119.21 C 63.378 119.21 72.027 111.691 73.769 101.785 L 112.978 101.785 L 112.978 112.821 C 112.978 115.5 115.141 117.661 117.818 117.661 L 147.217 117.661 L 147.217 192.825 L 99.422 192.825 C 96.743 192.825 94.582 194.988 94.582 197.665 L 94.582 215.253 C 85.256 217.448 78.284 225.837 78.284 235.81 C 78.284 247.459 87.773 256.948 99.422 256.948 C 111.072 256.948 120.56 247.459 120.56 235.81 C 120.56 225.806 113.588 217.448 104.262 215.253 L 104.262 202.505 L 147.28 202.505 L 147.28 282.7 C 140.115 287.702 131.757 290.349 122.98 290.349 C 111.171 290.317 100.165 285.54 92 276.892 L 92.006 276.889 Z  M 97.622 153.03 C 97.622 146.704 102.752 141.574 109.078 141.574 C 115.404 141.574 120.534 146.704 120.534 153.03 C 120.534 159.356 115.404 164.486 109.078 164.486 C 102.752 164.486 97.622 159.353 97.622 153.03 Z  M 64.479 98.007 C 64.479 104.333 59.349 109.463 53.024 109.463 C 46.698 109.463 41.568 104.333 41.568 98.007 C 41.568 91.681 46.698 86.551 53.024 86.551 C 59.347 86.549 64.479 91.681 64.479 98.007 Z  M 99.428 224.281 C 105.753 224.281 110.884 229.411 110.884 235.737 C 110.884 242.062 105.753 247.192 99.428 247.192 C 93.102 247.192 87.972 242.062 87.972 235.737 C 87.972 229.445 93.104 224.281 99.428 224.281 Z  M 285.346 165.743 C 285.346 182.684 275.729 197.724 261.046 204.533 C 253.43 188.784 241.167 179.393 224.515 176.618 C 221.868 176.165 219.385 177.973 218.932 180.586 C 218.48 183.233 220.288 185.716 222.901 186.169 C 237.713 188.654 247.91 197.271 254.011 212.568 C 254.042 212.633 254.076 212.664 254.108 212.73 C 254.139 212.826 254.173 212.923 254.204 212.988 C 257.399 219.217 259.044 225.93 259.044 232.965 C 259.044 250.68 248.201 266.719 232.096 272.885 C 226.417 275.048 220.447 275.823 214.671 275.37 C 197.083 270.175 193.63 262.463 190.274 255.039 C 189.177 252.585 186.305 251.52 183.883 252.619 C 181.429 253.715 180.364 256.587 181.463 259.01 C 185.528 268.111 190.273 276.21 204.57 282.083 C 197.567 287.407 189.209 290.28 180.367 290.28 C 171.911 290.28 163.844 287.666 156.937 282.664 L 156.937 52.245 C 156.937 28.75 175.396 9.646 198.117 9.646 C 220.837 9.646 239.296 28.75 239.296 52.245 C 239.296 72.512 233.067 84.549 220.256 88.97 C 217.739 89.841 216.384 92.585 217.255 95.133 C 217.933 97.134 219.837 98.393 221.838 98.393 C 222.354 98.393 222.903 98.296 223.419 98.134 C 239.167 92.679 247.688 78.997 248.815 57.407 C 269.307 59.827 285.314 77.867 285.314 99.714 C 285.314 109.234 282.248 118.303 276.666 125.756 C 265.338 116.205 252.365 112.558 236.261 114.429 C 233.614 114.751 231.712 117.139 232.002 119.787 C 232.324 122.434 234.746 124.336 237.36 124.046 C 252.334 122.303 263.531 126.013 273.633 136.082 C 281.215 144.09 285.346 154.609 285.346 165.743 L 285.346 165.743 Z " fill="rgb(209,77,84)"/><path d=" M 213.865 145.158 C 197.471 145.158 180.432 160.132 178.818 175.946 C 178.56 178.593 180.496 180.98 183.143 181.238 C 183.305 181.27 183.465 181.27 183.627 181.27 C 186.08 181.27 188.176 179.399 188.435 176.914 C 189.531 166.168 202.603 154.809 213.832 154.809 C 216.51 154.809 218.672 152.645 218.672 149.969 C 218.674 147.288 216.51 145.158 213.865 145.158 L 213.865 145.158 Z " fill="rgb(209,77,84)"/><path d=" M 180.078 220.414 C 178.239 222.35 178.367 225.416 180.303 227.255 C 182.239 229.063 185.305 228.966 187.144 227.03 C 192.018 221.803 205.669 222.737 210.542 227.255 C 211.479 228.126 212.672 228.545 213.833 228.545 C 215.123 228.545 216.415 228.029 217.383 226.996 C 219.191 225.029 219.094 221.963 217.125 220.155 C 208.703 212.346 188.858 211.022 180.079 220.414 L 180.078 220.414 Z " fill="rgb(209,77,84)"/><path d=" M 189.956 111.953 C 191.149 111.953 192.344 111.5 193.28 110.629 C 195.216 108.79 195.313 105.724 193.474 103.788 C 188.666 98.689 189.859 83.425 196.121 70.483 C 197.283 68.063 196.283 65.191 193.861 64.03 C 191.441 62.868 188.569 63.868 187.408 66.29 C 180.242 81.136 177.598 101.046 186.44 110.438 C 187.374 111.435 188.666 111.953 189.956 111.953 L 189.956 111.953 Z " fill="rgb(209,77,84)"/></g></g></svg>