<?xml version="1.0" encoding="UTF-8" standalone="no"?><!-- Generator: Gravit.io --><svg xmlns="http://www.w3.org/2000/svg" xmlns:xlink="http://www.w3.org/1999/xlink" style="isolation:isolate" viewBox="0 0 300 300" width="300pt" height="300pt"><defs><clipPath id="_clipPath_joTvcebyWlhgVDIwn97TCSphr0MAppKz"><rect width="300" height="300"/></clipPath></defs><g clip-path="url(#_clipPath_joTvcebyWlhgVDIwn97TCSphr0MAppKz)"><g><path d=" M 192.92 56.003 C 191.522 55.337 189.911 55.271 188.462 55.816 C 187.013 56.362 185.845 57.471 185.236 58.896 L 104.225 236.276 C 103.56 237.674 103.493 239.284 104.035 240.734 C 104.581 242.183 105.693 243.35 107.114 243.96 C 108.03 244.435 109.06 244.628 110.082 244.521 C 112.171 244.324 113.982 243.001 114.802 241.071 L 195.813 63.69 C 197.129 60.767 195.837 57.331 192.923 56.003 L 192.92 56.003 Z " fill="rgb(209,77,84)"/><path d=" M 218.953 95.916 C 216.192 94.328 212.663 95.263 211.047 98.01 C 210.244 99.316 209.998 100.889 210.373 102.377 C 210.744 103.865 211.7 105.142 213.024 105.917 L 286.744 149.402 L 213.723 194.284 C 212.389 195.083 211.433 196.378 211.061 197.884 C 210.69 199.393 210.937 200.984 211.747 202.308 C 212.838 204.017 214.715 205.066 216.745 205.098 C 217.819 205.073 218.865 204.752 219.767 204.171 L 295.579 157.659 C 298.362 155.839 300.028 152.728 300 149.403 C 299.946 145.981 298.148 142.82 295.233 141.032 L 218.953 95.916 Z " fill="rgb(209,77,84)"/><path d=" M 89.071 98.007 C 87.411 95.242 83.847 94.315 81.046 95.913 L 4.538 141.03 C 1.709 142.846 0 145.979 0 149.343 C 0 152.704 1.709 155.837 4.538 157.657 L 80.236 204.169 L 80.232 204.169 C 81.135 204.75 82.184 205.071 83.258 205.096 C 85.285 205.064 87.165 204.015 88.257 202.306 C 89.067 200.982 89.313 199.391 88.942 197.882 C 88.571 196.376 87.611 195.081 86.28 194.282 L 13.377 149.514 L 86.98 105.915 C 88.321 105.158 89.303 103.892 89.699 102.404 C 90.091 100.912 89.866 99.328 89.071 98.008 L 89.071 98.007 Z " fill="rgb(209,77,84)"/></g></g></svg>