<?xml version="1.0" encoding="UTF-8" standalone="no"?><!-- Generator: Gravit.io --><svg xmlns="http://www.w3.org/2000/svg" xmlns:xlink="http://www.w3.org/1999/xlink" style="isolation:isolate" viewBox="0 0 300 300" width="300pt" height="300pt"><defs><clipPath id="_clipPath_7gcAA8oguIpQ3Suvg2MuQQECuHND1uLP"><rect width="300" height="300"/></clipPath></defs><g clip-path="url(#_clipPath_7gcAA8oguIpQ3Suvg2MuQQECuHND1uLP)"><path d=" M 149.998 10 C 164.176 10 175.869 21.691 175.869 35.871 C 175.869 48.061 167.162 58.757 155.222 61.244 L 155.222 83.134 L 263.681 83.134 C 266.667 83.134 268.906 85.373 268.906 88.109 L 268.906 134.877 L 279.353 134.877 C 290.548 134.877 300 144.081 300 155.524 L 300 186.618 C 300 197.812 290.548 207.265 279.353 207.265 L 268.906 207.265 L 268.906 253.784 C 268.906 256.52 266.667 259.009 263.681 259.009 L 36.319 259.009 C 33.333 259.009 31.094 256.521 31.094 253.784 L 31.094 207.265 L 20.647 207.265 C 9.204 207.265 0 197.812 0 186.618 L 0 155.524 C 0 144.081 9.204 134.877 20.647 134.877 L 31.094 134.877 L 31.094 88.109 C 31.094 85.373 33.333 83.134 36.319 83.134 L 144.778 83.134 L 144.778 61.244 C 132.838 58.757 124.131 48.061 124.131 35.871 C 124.131 21.693 135.822 10 150.002 10 L 149.998 10 Z  M 118.904 214.476 C 116.168 214.476 113.679 212.237 113.679 209.252 C 113.679 206.516 116.166 204.027 118.904 204.027 L 181.092 204.027 C 183.828 204.027 186.317 206.514 186.317 209.252 C 186.317 212.237 183.829 214.476 181.092 214.476 L 118.904 214.476 Z  M 195.77 121.193 C 209.948 121.193 221.641 132.884 221.641 147.065 C 221.641 161.243 210.199 172.936 195.77 172.936 C 181.591 172.936 169.898 161.245 169.898 147.065 C 169.898 132.886 181.59 121.193 195.77 121.193 L 195.77 121.193 Z  M 195.77 131.641 C 187.313 131.641 180.348 138.606 180.348 147.063 C 180.348 155.52 187.313 162.485 195.77 162.485 C 204.477 162.485 211.442 155.769 211.442 147.063 C 211.442 138.356 204.477 131.641 195.77 131.641 L 195.77 131.641 Z  M 104.226 121.193 C 118.404 121.193 130.097 132.884 130.097 147.065 C 130.097 161.243 118.406 172.936 104.226 172.936 C 89.797 172.936 78.354 161.245 78.354 147.065 C 78.354 132.886 89.797 121.193 104.226 121.193 L 104.226 121.193 Z  M 104.226 131.641 C 95.519 131.641 88.554 138.606 88.554 147.063 C 88.554 155.52 95.519 162.485 104.226 162.485 C 112.683 162.485 119.648 155.769 119.648 147.063 C 119.648 138.356 112.683 131.641 104.226 131.641 L 104.226 131.641 Z  M 268.901 145.074 L 268.901 196.813 L 279.349 196.813 C 285.07 196.813 289.548 192.087 289.548 186.614 L 289.548 155.52 C 289.548 149.798 285.07 145.072 279.349 145.072 L 268.901 145.074 Z  M 31.094 196.813 L 31.094 145.074 L 20.647 145.074 C 14.926 145.074 10.447 149.8 10.447 155.522 L 10.447 186.616 C 10.447 192.089 14.925 196.815 20.647 196.815 L 31.094 196.813 Z  M 258.705 93.33 L 41.295 93.33 L 41.295 248.553 L 258.705 248.553 L 258.705 93.33 Z  M 149.998 20.443 C 141.291 20.443 134.576 27.16 134.576 35.866 C 134.576 44.323 141.541 51.288 149.998 51.288 C 158.705 51.288 165.42 44.323 165.42 35.866 C 165.42 27.159 158.704 20.443 149.998 20.443 Z " fill="rgb(209,77,84)"/></g></svg>