<?xml version="1.0" encoding="UTF-8" standalone="no"?><!-- Generator: Gravit.io --><svg xmlns="http://www.w3.org/2000/svg" xmlns:xlink="http://www.w3.org/1999/xlink" style="isolation:isolate" viewBox="0 0 300 300" width="300pt" height="300pt"><defs><clipPath id="_clipPath_OfJ0qSIIRuNKxTv0B5POSFPlgqrUA88P"><rect width="300" height="300"/></clipPath></defs><g clip-path="url(#_clipPath_OfJ0qSIIRuNKxTv0B5POSFPlgqrUA88P)"><g><path d=" M 269.827 128.52 L 247.053 121.791 C 244.982 114.545 241.876 107.297 238.254 100.57 L 249.642 79.349 C 250.677 77.278 250.16 74.69 248.607 73.137 L 225.315 49.845 C 223.762 48.292 221.175 47.774 219.104 48.81 L 197.883 60.198 C 191.153 56.574 183.907 53.469 176.661 51.4 L 169.932 28.626 C 169.93 27.069 167.859 25.516 165.788 25.516 L 133.179 25.516 C 131.108 25.516 129.039 27.069 128.002 29.14 L 121.273 51.914 C 114.027 53.985 106.779 57.091 100.052 60.713 L 78.83 49.325 C 76.759 48.291 74.172 48.807 72.619 50.36 L 49.845 73.654 C 48.292 75.207 47.774 77.794 48.81 79.865 L 60.198 101.086 C 56.574 107.816 53.469 115.062 51.4 122.308 L 28.626 129.037 C 26.553 129.037 25 131.108 25 133.179 L 25 165.788 C 25 167.859 26.553 169.928 28.624 170.965 L 51.398 177.694 C 53.469 184.94 56.575 192.188 60.197 198.915 L 48.809 220.137 C 47.774 222.208 48.29 224.795 49.843 226.348 L 73.136 249.64 C 74.688 251.193 77.276 251.711 79.347 250.675 L 100.568 239.287 C 107.298 242.911 114.543 246.016 121.789 248.086 L 128.519 270.86 C 129.037 272.931 131.106 274.484 133.695 274.484 L 166.305 274.484 C 168.376 274.484 170.445 272.931 171.481 270.86 L 178.211 248.086 C 185.457 246.015 192.704 242.909 199.432 239.287 L 220.653 250.675 C 222.724 251.71 225.312 251.193 226.864 249.64 L 250.157 226.348 C 251.71 224.795 252.228 222.208 251.191 220.137 L 239.803 198.915 C 243.427 192.186 246.533 184.94 248.602 177.694 L 271.376 170.965 C 273.447 170.447 275 168.377 275 165.788 L 275 133.179 C 273.451 131.108 271.898 129.037 269.827 128.521 L 269.827 128.52 Z  M 263.099 162.164 L 241.36 168.894 C 239.807 169.412 238.254 170.965 237.736 172.518 C 235.665 180.798 232.043 188.562 227.901 196.326 C 226.866 197.879 226.866 199.95 227.901 201.503 L 238.77 221.69 L 221.171 239.289 L 200.986 228.417 C 199.434 227.383 197.363 227.383 195.81 228.417 C 188.564 233.076 180.282 236.181 171.999 238.252 C 170.446 238.771 168.894 239.805 168.375 241.876 L 161.648 263.616 L 136.803 263.616 L 130.073 241.876 C 129.555 240.323 128.002 238.771 126.449 238.252 C 118.169 236.181 110.405 232.559 102.641 228.417 C 101.088 227.383 99.017 227.383 97.464 228.417 L 77.277 239.287 L 59.678 221.688 L 70.55 201.503 C 71.584 199.95 71.584 197.879 70.55 196.326 C 65.891 189.08 62.786 180.798 60.715 172.516 C 60.196 170.963 59.162 169.41 57.091 168.892 L 35.351 162.164 L 35.351 137.319 L 57.091 130.59 C 58.644 130.072 60.196 128.519 60.715 126.966 C 62.786 118.685 66.408 110.921 70.55 103.157 C 71.584 101.604 71.584 99.533 70.55 97.981 L 59.68 77.794 L 77.279 60.195 L 97.464 71.066 C 99.017 72.101 101.088 72.101 102.641 71.066 C 109.887 66.408 118.169 63.302 126.451 61.231 C 128.004 60.713 129.557 59.678 130.075 57.607 L 136.803 35.868 L 161.648 35.868 L 168.377 57.607 C 168.895 59.16 170.448 60.713 172.001 61.231 C 180.282 63.302 188.046 66.924 195.81 71.066 C 197.363 72.101 199.434 72.101 200.986 71.066 L 221.173 60.197 L 238.772 77.796 L 227.901 97.981 C 226.866 99.533 226.866 101.604 227.901 103.157 C 232.559 110.403 235.665 118.685 237.736 126.968 C 238.254 128.52 239.289 130.073 241.36 130.591 L 263.099 137.321 L 263.099 162.164 Z " fill="rgb(209,77,84)"/><path d=" M 150 76.499 C 109.627 76.499 76.499 109.626 76.499 150 C 76.499 190.374 109.626 223.501 150 223.501 C 190.374 223.501 223.501 190.374 223.501 150 C 223.501 109.626 190.374 76.499 150 76.499 L 150 76.499 Z  M 150 213.146 C 115.32 213.146 86.854 184.678 86.854 150 C 86.854 115.32 115.321 86.854 150 86.854 C 184.679 86.854 213.146 115.322 213.146 150 C 213.146 184.68 184.679 213.146 150 213.146 L 150 213.146 Z " fill="rgb(209,77,84)"/></g></g></svg>